<svg id="visual" viewBox="0 0 900 600" width="900" height="600" xmlns="http://www.w3.org/2000/svg" xmlns:xlink="http://www.w3.org/1999/xlink" version="1.1"><path d="M0 199L75 195C150 191 300 183 450 174C600 165 750 155 825 150L900 145L900 0L825 0C750 0 600 0 450 0C300 0 150 0 75 0L0 0Z" fill="#c4d4e9"></path><path d="M0 487L75 472C150 457 300 427 450 412C600 397 750 397 825 397L900 397L900 143L825 148C750 153 600 163 450 172C300 181 150 189 75 193L0 197Z" fill="#a6c2de"></path><path d="M0 601L75 601C150 601 300 601 450 601C600 601 750 601 825 601L900 601L900 395L825 395C750 395 600 395 450 410C300 425 150 455 75 470L0 485Z" fill="#80a1c3"></path></svg>