<svg id="visual" viewBox="0 0 900 600" width="900" height="600" xmlns="http://www.w3.org/2000/svg" xmlns:xlink="http://www.w3.org/1999/xlink" version="1.1"><path d="M0 115L37.5 120C75 125 150 135 225 129C300 123 375 101 450 106C525 111 600 143 675 157C750 171 825 167 862.5 165L900 163L900 0L862.5 0C825 0 750 0 675 0C600 0 525 0 450 0C375 0 300 0 225 0C150 0 75 0 37.5 0L0 0Z" fill="#9f5c76"></path><path d="M0 367L37.5 372C75 377 150 387 225 381C300 375 375 353 450 358C525 363 600 395 675 406C750 417 825 407 862.5 402L900 397L900 161L862.5 163C825 165 750 169 675 155C600 141 525 109 450 104C375 99 300 121 225 127C150 133 75 123 37.5 118L0 113Z" fill="#89405d"></path><path d="M0 499L37.5 495C75 491 150 483 225 472C300 461 375 447 450 451C525 455 600 477 675 482C750 487 825 475 862.5 469L900 463L900 395L862.5 400C825 405 750 415 675 404C600 393 525 361 450 356C375 351 300 373 225 379C150 385 75 375 37.5 370L0 365Z" fill="#722d4a"></path><path d="M0 601L37.5 601C75 601 150 601 225 601C300 601 375 601 450 601C525 601 600 601 675 601C750 601 825 601 862.5 601L900 601L900 461L862.5 467C825 473 750 485 675 480C600 475 525 453 450 449C375 445 300 459 225 470C150 481 75 489 37.5 493L0 497Z" fill="#5c253c"></path></svg>